# xmcd
#
# Track frame offsets: 
#        150
#        10640
#        23774
#        40016
#        50507
#        61597
#        75045
#        87980
#        103438
#        115956
#
# Disc length: 1683 seconds
#
# Revision: 0
# Processed by: cddbd v1.5.1PL0 Copyright (c) Steve Scherf et al.
# Submitted via: ExactAudioCopy v0.95a5
#
DISCID=6906910a
DTITLE=Various Artist - Real 60's: The Psychadelic Hits [CD3]
DYEAR=2003
DGENRE=Pop/Rock
TTITLE0=The Lovin' Spoonful - Daydream
TTITLE1=Jefferson Airplane - Crown Of Creation
TTITLE2=Melanie - Beautiful People
TTITLE3=Glenn Yarbrough - Baby The Rain Must Fall
TTITLE4=Captain Beefheart and His Magic Band - Yellow Brick Road
TTITLE5=Le Cirque - Land Of Oz
TTITLE6=The Barry Goldberg Reunion - Hole In My Pocket
TTITLE7=The Myddle Class - Don't Let Me Sleep Too Long
TTITLE8=Hugo Montenegro, His Orchestra and Chorus - The Good, The Bad An
TTITLE8=d The Ugly
TTITLE9=Neal Hefti - Batman Theme
EXTD=
EXTT0=
EXTT1=
EXTT2=
EXTT3=
EXTT4=
EXTT5=
EXTT6=
EXTT7=
EXTT8=
EXTT9=
PLAYORDER=
